<?xml version="1.0" encoding="UTF-8"?>
<svg id="Capa_2" data-name="Capa 2" xmlns="http://www.w3.org/2000/svg" viewBox="0 0 485.65 485.67">
  <defs>
    <style>
      .cls-1 {
        fill: #01dea2;
      }
    </style>
  </defs>
  <g id="Capa_1-2" data-name="Capa 1">
    <g>
      <path class="cls-1" d="M241.81,1L1,241.83c-.64.64-1,1.51-1,2.42v116.58c0,1.89,1.53,3.42,3.42,3.42h116.56c.9,0,1.74-.34,2.39-.97,9.94-9.8,92.54-91.29,115.07-114.67,2.09-2.17.54-5.79-2.48-5.79h-107.72c-3.05,0-4.58-3.69-2.42-5.85l114.57-114.57c.64-.64,1.51-1,2.42-1h121c.91,0,1.78-.36,2.42-1L479.8,5.85c2.16-2.16.63-5.85-2.42-5.85h-233.15c-.91,0-1.78.36-2.42,1Z"/>
      <path class="cls-1" d="M243.84,484.67l240.8-240.83c.64-.64,1-1.51,1-2.42v-116.58c0-1.89-1.53-3.42-3.42-3.42h-116.56c-.9,0-1.74.34-2.39.97-9.94,9.8-92.54,91.29-115.07,114.67-2.09,2.17-.54,5.79,2.48,5.79h107.72c3.05,0,4.58,3.69,2.42,5.85l-114.57,114.57c-.64.64-1.51,1-2.42,1h-121c-.91,0-1.78.36-2.42,1L5.85,479.83c-2.16,2.16-.63,5.85,2.42,5.85h233.15c.91,0,1.78-.36,2.42-1Z"/>
    </g>
  </g>
</svg>