<?xml version="1.0" encoding="UTF-8"?>
<svg xmlns="http://www.w3.org/2000/svg" width="209" height="30" viewBox="0 0 209 30" fill="none">
  <path d="M19.9751 0.179688L12.3382 13.8183L4.8684 0.179688H0L10.3219 18.0963V29.4261H14.6052V18.0963L24.8017 0.179688H19.9751Z" fill="white"></path>
  <path d="M38.4136 9.75142C36.904 8.82686 35.1541 8.36719 33.1691 8.36719C31.1842 8.36719 29.4552 8.82686 27.9037 9.75142C26.3523 10.676 25.1405 11.9401 24.2733 13.5489C23.4062 15.1578 22.9727 16.9964 22.9727 19.0649C22.9727 21.1335 23.4114 22.9826 24.2942 24.6019C25.177 26.2264 26.3837 27.4957 27.9246 28.4202C29.4604 29.3448 31.2103 29.8045 33.1691 29.8045C35.128 29.8045 36.8675 29.3344 38.3928 28.3994C39.918 27.4643 41.1195 26.1898 42.0023 24.581C42.8851 22.9721 43.3238 21.1335 43.3238 19.0649C43.3238 16.9964 42.8851 15.1578 42.0023 13.5489C41.1195 11.9401 39.9233 10.676 38.4136 9.75142ZM38.4763 22.7998C37.9853 23.8653 37.2853 24.6854 36.3764 25.2757C35.4675 25.8607 34.3967 26.1585 33.1639 26.1585C31.9311 26.1585 30.8185 25.866 29.9096 25.2757C29.0007 24.6907 28.3007 23.8653 27.8097 22.7998C27.3187 21.7394 27.0732 20.491 27.0732 19.0649C27.0732 17.6389 27.3187 16.3592 27.8097 15.3092C28.3007 14.2593 29.0007 13.4444 29.9096 12.8542C30.8185 12.2692 31.905 11.9714 33.1639 11.9714C34.4228 11.9714 35.4623 12.2587 36.3764 12.8333C37.2853 13.4079 37.9853 14.2227 38.4763 15.2883C38.9674 16.3539 39.2129 17.6128 39.2129 19.0649C39.2129 20.5171 38.9674 21.7342 38.4763 22.7998Z" fill="white"></path>
  <path d="M61.4108 18.3456C61.4108 20.0798 61.228 21.5268 60.8676 22.6864C60.5019 23.846 59.9534 24.7235 59.2117 25.3086C58.4699 25.8936 57.514 26.1913 56.3387 26.1913C55.3305 26.1913 54.5 25.9772 53.8418 25.5384C53.1836 25.1049 52.7031 24.4624 52.3949 23.6057C52.0867 22.7543 51.9352 21.7096 51.9352 20.4821V8.73438H47.8242V21.7827C47.8242 23.4908 48.1115 24.9377 48.6861 26.1234C49.2607 27.3144 50.0965 28.2233 51.2039 28.8501C52.3113 29.4769 53.6329 29.7956 55.1686 29.7956C56.7044 29.7956 58.1879 29.4038 59.4468 28.6203C60.2303 28.1345 60.8832 27.5025 61.4213 26.7241V29.4195H65.4905V8.7396H61.4213V18.3509L61.4108 18.3456Z" fill="white"></path>
  <path d="M90.4899 23.0912L85.914 8.74219H82.3463L77.7756 23.1748L73.8318 8.74219H69.4648L75.6757 29.4273H79.4524L84.1536 14.4881L88.8549 29.4273H92.5898L98.8372 8.74219H94.4755L90.4899 23.0912Z" fill="white"></path>
  <path d="M107.062 2.50937C107.062 1.22272 106.019 0.179688 104.732 0.179688C103.445 0.179688 102.402 1.22272 102.402 2.50937V2.84368C102.402 4.13033 103.445 5.17336 104.732 5.17336C106.019 5.17336 107.062 4.13033 107.062 2.84368V2.50937Z" fill="white"></path>
  <path d="M106.81 8.74219H102.699V29.4273H106.81V8.74219Z" fill="white"></path>
  <path d="M122.84 8.36074C121.748 8.36074 120.735 8.55923 119.8 8.94577C118.865 9.33753 118.05 9.9069 117.366 10.6434C117.094 10.9359 116.854 11.2598 116.629 11.615V8.73161H112.477V29.4167H116.629V19.2204C116.629 17.5437 116.823 16.1594 117.214 15.0677C117.606 13.976 118.17 13.182 118.912 12.6754C119.654 12.1739 120.584 11.9179 121.701 11.9179C123.185 11.9179 124.282 12.3776 124.998 13.3022C125.713 14.2267 126.068 15.6789 126.068 17.6638V29.4115H130.179V16.149C130.179 13.6051 129.526 11.6672 128.226 10.3352C126.925 9.00845 125.128 8.33984 122.835 8.33984L122.84 8.36074Z" fill="white"></path>
  <path d="M149.672 11.8177C149.541 11.6087 149.4 11.4102 149.254 11.217C148.554 10.3237 147.692 9.6238 146.674 9.11712C145.65 8.61566 144.527 8.35971 143.294 8.35971C141.586 8.35971 140.034 8.79326 138.634 9.66036C137.235 10.5275 136.122 11.7602 135.297 13.3534C134.471 14.9466 134.059 16.8531 134.059 19.0627C134.059 21.079 134.445 22.902 135.213 24.5369C135.981 26.1719 137.052 27.4621 138.426 28.3971C139.794 29.3321 141.419 29.8022 143.294 29.8022C144.495 29.8022 145.608 29.5567 146.632 29.0657C147.65 28.5747 148.528 27.8643 149.254 26.9241C149.4 26.7308 149.541 26.5323 149.672 26.3234V29.4209H153.741V0.179688H149.672V11.8177ZM147.259 25.1481C146.376 25.7331 145.336 26.0308 144.135 26.0308C142.933 26.0308 141.925 25.7383 141.032 25.1481C140.139 24.563 139.444 23.743 138.953 22.693C138.462 21.6431 138.217 20.4365 138.217 19.0627C138.217 17.6889 138.462 16.4823 138.953 15.4323C139.444 14.3824 140.134 13.5728 141.032 12.9982C141.925 12.4236 142.965 12.1363 144.135 12.1363C145.305 12.1363 146.381 12.4236 147.259 12.9982C148.141 13.5728 148.826 14.3824 149.317 15.4323C149.808 16.4823 150.053 17.6941 150.053 19.0627C150.053 20.4312 149.808 21.6431 149.317 22.693C148.826 23.743 148.141 24.5578 147.259 25.1481Z" fill="white"></path>
  <path d="M182.664 0C185.903 11.2514 174.531 24.1744 162.945 22.0955C165.489 20.8627 167.725 19.63 169.741 18.1465C175.957 13.5864 180.168 7.36515 182.664 0Z" fill="white"></path>
  <path d="M162.945 13.8684C168.028 9.7314 170.969 6.05927 166.905 0C176.804 3.10277 171.428 13.999 162.945 13.8684Z" fill="white"></path>
  <path d="M162.945 29.5707C174.866 27.4343 180.653 22.3048 187.883 12.9599C190.171 10.134 192.375 7.31853 195.159 4.83736C198.753 1.50476 204.039 -0.798807 208.944 0.266789C198.361 2.05845 194.449 12.5316 187.789 19.7975C181.468 27.1888 172.729 31.4094 162.945 29.5707Z" fill="white"></path>
</svg>
