<svg width="426" height="154" viewBox="0 0 426 154" fill="none" xmlns="http://www.w3.org/2000/svg">
  <path d="M380.516 114.307H383.743L389.355 128.009H389.562L395.174 114.307H398.401V131.934H395.871V119.178H395.707L390.509 131.908H388.408L383.21 119.17H383.046V131.934H380.516V114.307Z" fill="#EFEDE5"/>
  <path d="M370.779 123.121C370.779 125.003 370.434 126.621 369.746 127.975C369.057 129.323 368.113 130.362 366.914 131.091C365.721 131.814 364.363 132.175 362.843 132.175C361.317 132.175 359.954 131.814 358.754 131.091C357.561 130.362 356.62 129.321 355.931 127.966C355.243 126.612 354.898 124.997 354.898 123.121C354.898 121.239 355.243 119.623 355.931 118.275C356.62 116.921 357.561 115.882 358.754 115.159C359.954 114.43 361.317 114.066 362.843 114.066C364.363 114.066 365.721 114.43 366.914 115.159C368.113 115.882 369.057 116.921 369.746 118.275C370.434 119.623 370.779 121.239 370.779 123.121ZM368.145 123.121C368.145 121.686 367.913 120.478 367.448 119.497C366.989 118.51 366.357 117.764 365.554 117.259C364.757 116.748 363.853 116.493 362.843 116.493C361.827 116.493 360.921 116.748 360.123 117.259C359.325 117.764 358.694 118.51 358.229 119.497C357.77 120.478 357.541 121.686 357.541 123.121C357.541 124.555 357.77 125.766 358.229 126.753C358.694 127.734 359.325 128.48 360.123 128.991C360.921 129.496 361.827 129.748 362.843 129.748C363.853 129.748 364.757 129.496 365.554 128.991C366.357 128.48 366.989 127.734 367.448 126.753C367.913 125.766 368.145 124.555 368.145 123.121Z" fill="#EFEDE5"/>
  <path d="M345.865 120.039H343.18C343.076 119.465 342.884 118.961 342.603 118.524C342.322 118.088 341.978 117.718 341.57 117.414C341.163 117.11 340.707 116.88 340.202 116.726C339.702 116.571 339.172 116.493 338.609 116.493C337.594 116.493 336.684 116.748 335.881 117.259C335.083 117.77 334.452 118.519 333.987 119.506C333.528 120.493 333.299 121.698 333.299 123.121C333.299 124.555 333.528 125.766 333.987 126.753C334.452 127.74 335.086 128.486 335.889 128.991C336.693 129.496 337.597 129.748 338.601 129.748C339.157 129.748 339.685 129.674 340.184 129.524C340.689 129.369 341.146 129.143 341.553 128.844C341.96 128.546 342.305 128.182 342.586 127.751C342.873 127.315 343.071 126.816 343.18 126.254L345.865 126.262C345.722 127.129 345.443 127.926 345.03 128.655C344.623 129.378 344.098 130.003 343.455 130.531C342.818 131.054 342.089 131.458 341.269 131.745C340.448 132.032 339.553 132.175 338.583 132.175C337.057 132.175 335.697 131.814 334.504 131.091C333.31 130.362 332.369 129.321 331.681 127.966C330.998 126.612 330.656 124.997 330.656 123.121C330.656 121.239 331.001 119.623 331.689 118.275C332.378 116.921 333.319 115.882 334.512 115.159C335.706 114.43 337.063 114.066 338.583 114.066C339.519 114.066 340.391 114.201 341.2 114.47C342.015 114.734 342.746 115.125 343.395 115.641C344.043 116.152 344.58 116.777 345.004 117.517C345.429 118.252 345.716 119.092 345.865 120.039Z" fill="#EFEDE5"/>
  <path d="M319.721 132.098C319.251 132.098 318.846 131.932 318.508 131.599C318.169 131.261 318 130.853 318 130.377C318 129.906 318.169 129.505 318.508 129.172C318.846 128.833 319.251 128.664 319.721 128.664C320.192 128.664 320.597 128.833 320.935 129.172C321.274 129.505 321.443 129.906 321.443 130.377C321.443 130.692 321.363 130.982 321.202 131.246C321.047 131.504 320.84 131.711 320.582 131.866C320.324 132.021 320.037 132.098 319.721 132.098Z" fill="#EFEDE5"/>
  <path d="M143.328 125.799C143.922 125.799 144.446 125.597 144.888 125.188C145.335 124.784 145.559 124.244 145.559 123.578C145.559 122.694 145.93 121.249 146.672 119.252C147.414 117.255 148.401 114.871 149.629 112.094C150.851 109.323 152.264 106.29 153.862 103C155.461 99.7105 157.097 96.3608 158.767 92.9566C160.436 89.5578 162.111 86.2082 163.78 82.9185C165.455 79.6289 166.994 76.5738 168.407 73.7642C169.672 72.0621 171.118 70.2727 172.755 68.3851C174.391 66.4975 176.044 64.779 177.714 63.2242C179.383 61.6749 180.982 60.3765 182.509 59.3399C184.031 58.3088 185.352 57.7906 186.465 57.7906C187.577 57.7906 188.358 58.1779 188.805 58.9526C189.252 59.7327 189.471 60.7092 189.471 61.8931C189.471 63.5952 188.898 65.761 187.747 68.3851C186.595 71.0092 185.052 73.5624 183.12 76.0392C181.189 78.5159 178.903 80.6436 176.268 82.4221C173.628 84.1951 170.824 85.0844 167.85 85.0844C167.479 85.0844 167.032 85.1007 166.514 85.1389C165.995 85.1716 165.51 85.2698 165.063 85.4117C164.621 85.5644 164.25 85.8045 163.95 86.1373C163.65 86.47 163.502 86.9283 163.502 87.523C163.502 88.4831 163.895 89.1487 164.675 89.5197C165.455 89.8906 166.808 90.0761 168.74 90.0761C170.9 90.0761 173.682 89.7597 177.103 89.1323C180.518 88.5049 184.233 87.2829 188.249 85.4717C192.258 83.6605 196.405 81.1455 200.676 77.9268C204.948 74.708 209.018 70.5127 212.88 65.3355C213.328 64.7408 213.546 64.2608 213.546 63.8898C213.546 63.3006 213.382 62.8751 213.044 62.6187C212.711 62.3568 212.324 62.2259 211.876 62.2259C211.729 62.2259 211.467 62.3404 211.096 62.5587C210.725 62.7823 210.387 63.0769 210.092 63.4479C207.714 66.4811 205.264 69.1434 202.738 71.4347C200.212 73.726 197.703 75.69 195.21 77.3157C192.722 78.9415 190.289 80.2726 187.91 81.3092C185.537 82.3457 183.268 83.1968 181.113 83.8623C182.749 82.5312 184.326 80.96 185.848 79.1488C187.376 77.3321 188.729 75.4281 189.918 73.4314C191.107 71.4347 192.056 69.438 192.76 67.4413C193.464 65.4446 193.819 63.5952 193.819 61.8931C193.819 60.9329 193.709 59.9509 193.486 58.9526C193.262 57.9542 192.875 57.0486 192.313 56.2357C191.756 55.4229 191.014 54.7573 190.087 54.239C189.154 53.7208 187.987 53.4644 186.574 53.4644C184.642 53.4644 182.711 54.0754 180.78 55.2919C178.849 56.514 176.803 58.1233 174.648 60.12C176.285 56.7158 171.789 56.2903 170.3 59.509C168.816 62.7278 167.163 66.1865 165.341 69.8799C163.524 73.5787 161.718 77.2066 159.934 80.7527C154.217 92.0728 149.667 101.445 146.285 108.881C142.902 116.312 141.211 121.211 141.211 123.578C141.211 125.057 141.92 125.799 143.328 125.799Z" fill="#EFEDE5"/>
  <path d="M281.526 20.6786C281.154 20.6786 280.689 20.8096 280.137 21.0661C279.58 21.3281 278.896 21.8247 278.082 22.567C276.753 23.8987 275.343 25.7325 273.867 28.063C272.386 30.3989 270.888 33.0241 269.368 35.9495C267.854 38.8748 266.411 42.0021 265.039 45.3368C263.672 48.6661 262.431 51.9953 261.321 55.33C263.694 52.7376 266.077 49.7958 268.483 46.4993C270.888 43.2028 273.069 39.95 275.031 36.7299C276.994 33.5044 278.579 30.4917 279.804 27.6755C281.023 24.8647 281.635 22.6052 281.635 20.9024C281.635 20.755 281.597 20.6786 281.526 20.6786ZM281.744 16.3506C282.783 16.3506 283.762 16.6835 284.685 17.3494C285.609 18.0152 286.074 19.1231 286.074 20.6786C286.074 22.3105 285.669 24.2698 284.855 26.5675C284.04 28.8598 282.931 31.3213 281.526 33.9519C280.115 36.5771 278.492 39.3005 276.639 42.1113C274.791 44.9275 272.85 47.6673 270.811 50.3307C268.778 52.9941 266.689 55.5156 264.541 57.8842C262.398 60.2529 260.359 62.3269 258.44 64.1007C257.992 64.7665 257.533 65.8035 257.052 67.2116C256.571 68.6197 256.106 70.1533 255.663 71.8234C255.221 73.488 254.865 75.1363 254.608 76.7627C254.351 78.3891 254.22 79.759 254.22 80.8724C254.22 82.2805 254.351 83.4648 254.608 84.4254C254.865 85.3914 255.253 85.8717 255.773 85.8717C257.402 85.8717 259.397 85.1131 261.77 83.5958C264.137 82.0731 266.613 80.2065 269.204 77.9852C271.795 75.7639 274.326 73.3407 276.808 70.71C279.284 68.0794 281.449 65.6561 283.297 63.4348C283.964 62.698 284.593 62.3269 285.183 62.3269C285.631 62.3269 285.981 62.4906 286.238 62.8235C286.5 63.1565 286.626 63.5112 286.626 63.8823C286.626 64.3244 286.407 64.8429 285.965 65.4378C283.45 68.767 280.728 71.9326 277.803 74.9289C274.884 77.9307 272.036 80.5558 269.259 82.8154C266.482 85.0749 263.912 86.8705 261.545 88.2022C259.178 89.5339 257.254 90.1997 255.773 90.1997C253.848 90.1997 252.389 89.4029 251.388 87.8147C250.394 86.221 249.891 83.9069 249.891 80.8724C249.891 78.1326 250.279 74.9289 251.055 71.2667C251.831 67.5991 252.886 63.7677 254.22 59.7726C255.549 55.7721 257.085 51.717 258.823 47.6127C260.567 43.503 262.376 39.6335 264.262 36.004C266.154 32.3746 268.04 29.1218 269.926 26.2292C271.812 23.3475 273.605 21.0879 275.31 19.4561C277.53 17.3821 279.673 16.3506 281.744 16.3506Z" fill="#EFEDE5"/>
  <path d="M283.774 91.7144C285.325 91.7144 287.092 91.1893 289.087 90.1446C291.077 89.0999 293.05 87.6285 295.007 85.7305C296.959 83.827 298.726 81.4969 300.314 78.7401C301.903 75.9779 303.101 72.8875 303.909 69.4579C304.353 67.5162 304.613 65.9901 304.684 64.8688C304.76 63.753 304.798 62.8942 304.798 62.298V61.7401C304.646 61.215 304.369 60.8267 303.968 60.5641C303.562 60.3016 303.133 60.1703 302.694 60.1703C302.103 60.1703 301.605 60.3945 301.198 60.8431C300.797 61.2916 300.591 61.7784 300.591 62.298C300.591 66.0995 299.946 69.5673 298.656 72.7015C297.365 75.8302 295.815 78.4776 294.01 80.6382C292.199 82.8042 290.356 84.4779 288.475 85.6703C286.593 86.8682 285.065 87.4644 283.888 87.4644C282.631 87.4644 281.601 87.0323 280.787 86.1736C279.974 85.3203 279.573 84.1443 279.573 82.651C279.573 80.7147 280.066 78.4229 281.064 75.7755C282.061 73.1282 283.39 70.5355 285.048 68.003C286.707 65.465 288.605 63.2115 290.746 61.2369C292.882 59.2623 295.094 58.048 297.382 57.5995C298.563 57.3041 299.154 56.5548 299.154 55.3624C299.154 54.0988 298.563 53.4644 297.382 53.4644H296.498C293.619 54.0606 290.892 55.51 288.312 57.8238C285.726 60.1375 283.46 62.763 281.508 65.7112C279.551 68.6539 278.023 71.6568 276.917 74.7144C275.811 77.772 275.258 80.4139 275.258 82.651C275.258 85.4844 275.973 87.7051 277.415 89.3077C278.852 90.9104 280.972 91.7144 283.774 91.7144Z" fill="#EFEDE5"/>
  <path d="M284.589 125.799C285.187 125.799 285.708 125.597 286.157 125.188C286.607 124.784 286.832 124.244 286.832 123.578C286.832 122.694 287.205 121.249 287.951 119.252C288.696 117.255 289.689 114.871 290.917 112.094C292.151 109.323 293.572 106.29 295.179 103C296.78 99.7105 298.425 96.3608 300.109 92.9566C301.787 89.5578 303.465 86.2082 305.149 82.9185C306.827 79.6289 308.379 76.5738 309.799 73.7642C316.166 63.4479 322.44 60.3765 323.97 59.3454C325.5 58.3088 326.827 57.7906 327.951 57.7906C329.07 57.7906 329.854 58.1779 330.304 58.958C330.748 59.7327 330.973 60.7147 330.973 61.8931C330.973 63.5952 330.392 65.761 329.235 68.3851C328.078 71.0092 326.531 73.5624 324.59 76.0392C322.643 78.5159 320.351 80.6436 317.696 82.4221C315.047 84.1951 312.223 85.0844 309.24 85.0844C308.861 85.0844 308.417 85.1007 307.896 85.1389C307.37 85.1771 306.887 85.2698 306.437 85.4171C305.988 85.5644 305.615 85.8045 305.319 86.1373C305.017 86.47 304.869 86.9283 304.869 87.523C304.869 88.4831 305.258 89.1487 306.043 89.5197C306.827 89.8906 308.192 90.0761 310.134 90.0761C312.3 90.0761 315.102 89.7597 318.535 89.1323C321.974 88.5049 325.708 87.2829 329.739 85.4717C333.776 83.6605 337.938 81.1455 342.232 77.9268C346.526 74.708 350.617 70.5127 354.505 65.3355C354.95 64.7408 355.175 64.2608 355.175 63.8898C355.175 63.3006 355.005 62.8751 354.67 62.6187C354.335 62.3568 353.941 62.2259 353.491 62.2259C353.343 62.2259 353.085 62.3404 352.712 62.5641C352.339 62.7823 351.999 63.0769 351.703 63.4479C349.312 66.4811 346.844 69.1434 344.305 71.4347C341.766 73.726 339.249 75.69 336.742 77.3157C334.242 78.9415 331.796 80.2726 329.405 81.3092C327.014 82.3457 324.738 83.1968 322.572 83.8623C324.217 82.5312 325.802 80.96 327.332 79.1488C328.862 77.3321 330.227 75.4281 331.423 73.4314C332.618 71.4347 333.567 69.438 334.28 67.4413C334.988 65.4446 335.344 63.5952 335.344 61.8931C335.344 60.9329 335.229 59.9564 335.004 58.958C334.785 57.9542 334.39 57.0486 333.83 56.2357C333.271 55.4229 332.525 54.7573 331.587 54.239C330.655 53.7208 329.482 53.4644 328.061 53.4644C326.12 53.4644 323.285 54.239 319.846 56.2357C318.87 56.8031 314.642 59.9018 310.134 65.5919C305.483 71.4784 302.165 79.0069 301.282 80.7527C295.53 92.0728 290.956 101.445 287.556 108.881C284.161 116.312 282.461 121.211 282.461 123.578C282.461 125.057 283.168 125.799 284.589 125.799Z" fill="#EFEDE5"/>
  <path d="M361.408 48.9201C362.414 48.9201 363.388 48.5156 364.322 47.7121C365.251 46.9086 365.912 45.9217 366.302 44.7515C366.457 44.0235 366.535 43.5112 366.535 43.22C366.535 42.4165 366.318 41.7802 365.896 41.3002C365.468 40.831 364.867 40.5884 364.088 40.5884C362.998 40.5884 361.869 41.1384 360.707 42.2331C359.539 43.3279 358.961 44.6113 358.961 46.0673C358.961 46.8709 359.172 47.5449 359.6 48.095C360.029 48.6451 360.629 48.9201 361.408 48.9201Z" fill="#EFEDE5"/>
  <path d="M350.907 90.5782C354.281 90.5782 358.72 88.3667 364.224 83.9437C369.733 79.5152 375.708 73.2937 382.15 65.2573C382.446 64.8878 382.638 64.6107 382.71 64.4259C382.786 64.2358 382.825 63.9586 382.825 63.5892C382.825 63.2142 382.671 62.8828 382.375 62.5839C382.073 62.2851 381.738 62.1384 381.365 62.1384C380.69 62.1384 380.054 62.5079 379.45 63.2523C375.779 67.5666 372.41 71.1854 369.338 74.125C366.265 77.0646 363.532 79.4228 361.134 81.2105C358.737 82.9928 356.679 84.2751 354.956 85.0576C353.228 85.84 351.883 86.2312 350.907 86.2312C350.084 86.2312 349.617 86.003 349.502 85.5575C349.392 85.1119 349.337 84.5142 349.337 83.7752C349.337 81.993 349.935 79.2544 351.132 75.5758C352.333 71.8972 354.468 67.083 357.54 61.1331C357.689 60.8343 357.765 60.4974 357.765 60.1279C357.765 59.6063 357.54 59.1227 357.09 58.6771C356.641 58.2316 356.114 58.0088 355.516 58.0088C354.764 58.0088 354.127 58.3837 353.606 59.1227C351.806 62.5459 350.347 65.5942 349.222 68.273C348.097 70.9463 347.219 73.2719 346.583 75.2389C345.946 77.2113 345.513 78.9012 345.288 80.3194C345.063 81.7322 344.953 82.9221 344.953 83.8839C344.953 88.3449 346.939 90.5782 350.907 90.5782Z" fill="#EFEDE5"/>
  <path d="M376.236 90.5786C377.272 90.5786 378.455 90.2255 379.79 89.5247C381.12 88.824 382.493 87.9005 383.9 86.7544C385.306 85.6082 386.674 84.3099 388.009 82.8704C389.339 81.4254 390.566 79.9696 391.672 78.4866C391.378 79.5242 391.154 80.4096 391.007 81.1484C390.86 81.8872 390.784 82.6314 390.784 83.3701C390.784 83.8862 390.822 84.5326 390.898 85.3094C390.969 86.0862 391.209 86.8467 391.617 87.5855C392.026 88.3242 392.615 88.9544 393.394 89.4704C394.174 89.9865 395.226 90.2472 396.561 90.2472C397.896 90.2472 399.319 89.8941 400.84 89.1934C402.355 88.4926 403.93 87.5474 405.56 86.3632C407.189 85.179 408.797 83.8482 410.389 82.3706C411.98 80.8931 413.517 79.3775 415 77.8239C418.483 74.2007 421.922 70.094 425.329 65.5092C425.776 65.0638 425.999 64.5097 425.999 63.847C425.999 63.5482 425.868 63.2386 425.607 62.9018C425.35 62.5705 424.996 62.4021 424.555 62.4021C423.813 62.4021 423.148 62.8095 422.554 63.6243C420.778 65.8406 418.723 68.247 416.39 70.8327C414.057 73.4239 411.67 75.8249 409.223 78.0412C406.781 80.2629 404.432 82.1316 402.17 83.6472C399.913 85.1627 397.967 85.9178 396.338 85.9178C395.82 85.9178 395.525 85.7929 395.449 85.5321C395.378 85.2714 395.34 84.8857 395.34 84.3696C395.34 83.4082 395.471 82.2239 395.727 80.817C395.989 79.4101 396.376 77.8945 396.894 76.2703C397.411 74.6407 398.022 72.9621 398.725 71.2239C399.433 69.4856 400.229 67.8016 401.118 66.1774C401.265 65.8786 401.336 65.4712 401.336 64.9552C401.189 63.771 400.485 63.1789 399.226 63.1789C398.485 63.1789 397.896 63.4776 397.449 64.0643C395.602 66.726 393.618 69.3715 391.508 72.0007C389.399 74.6244 387.377 76.9711 385.453 79.0407C383.529 81.1104 381.752 82.778 380.122 84.0329C378.493 85.2931 377.234 85.9178 376.345 85.9178C375.528 85.9178 374.994 85.5701 374.732 84.864C374.476 84.1632 374.345 83.5168 374.345 82.9247C374.345 80.9257 375.086 78.4703 376.569 75.5478C378.046 72.6254 379.899 69.8332 382.123 67.1715C384.341 64.5097 386.767 62.2391 389.399 60.3541C392.026 58.4692 394.49 57.524 396.785 57.524C398.529 57.524 398.872 58.2682 399.003 58.8006C399.139 59.3275 399.139 61.4895 397.52 64.0045C395.902 66.5196 399.94 64.2924 400.458 64.2924C401.052 64.2924 399.161 70.1863 401.118 66.1774C403.074 62.163 404.693 57.524 401.336 54.2321C400.044 53.124 398.638 53.0859 397.008 53.0859C395.155 53.0859 393.193 53.5857 391.121 54.5852C389.045 55.5793 386.99 56.8939 384.952 58.5235C382.919 60.1477 380.973 62.0164 379.12 64.1241C377.272 66.2317 375.642 68.3937 374.236 70.61C372.83 72.8318 371.696 74.9938 370.846 77.1014C369.995 79.2091 369.57 81.1104 369.57 82.8106V84.2556C369.794 86.3252 370.53 87.9005 371.789 88.9707C373.048 90.0408 374.53 90.5786 376.236 90.5786Z" fill="#EFEDE5"/>
  <path d="M206.947 90.5786C207.983 90.5786 209.171 90.2255 210.501 89.5247C211.836 88.824 213.204 87.9005 214.611 86.7544C216.017 85.6082 217.39 84.3099 218.726 82.8704C220.056 81.4254 221.276 79.9696 222.388 78.4866C222.089 79.5242 221.871 80.4096 221.723 81.1484C221.571 81.8872 221.5 82.6314 221.5 83.3701C221.5 83.8862 221.538 84.5326 221.609 85.3094C221.685 86.0862 221.925 86.8467 222.334 87.5855C222.743 88.3242 223.331 88.9544 224.111 89.4704C224.885 89.9865 225.942 90.2472 227.277 90.2472C228.607 90.2472 230.035 89.8941 231.551 89.1934C233.071 88.4926 234.641 87.5474 236.276 86.3632C237.906 85.179 239.514 83.8482 241.105 82.3706C242.697 80.8931 244.234 79.3775 245.716 77.8239C249.194 74.2007 252.639 70.094 256.045 65.5092C256.492 65.0638 256.71 64.5097 256.71 63.847C256.71 63.5482 256.585 63.2386 256.323 62.9018C256.067 62.5705 255.713 62.4021 255.266 62.4021C254.53 62.4021 253.859 62.8095 253.271 63.6243C251.488 65.8406 249.439 68.247 247.106 70.8327C244.768 73.4239 242.381 75.8249 239.939 78.0412C237.497 80.2629 235.142 82.1316 232.886 83.6472C230.624 85.1627 228.684 85.9178 227.054 85.9178C226.536 85.9178 226.242 85.7929 226.166 85.5321C226.089 85.2714 226.057 84.8857 226.057 84.3696C226.057 83.4082 226.182 82.2239 226.444 80.817C226.7 79.4101 227.092 77.8945 227.61 76.2703C228.128 74.6407 228.738 72.9621 229.441 71.2239C230.144 69.4856 230.94 67.8016 231.829 66.1774C231.981 65.8786 232.052 65.4712 232.052 64.9552C231.905 63.771 231.202 63.1789 229.943 63.1789C229.201 63.1789 228.607 63.4776 228.166 64.0643C226.313 66.726 224.334 69.3715 222.219 72.0007C220.11 74.6244 218.093 76.9711 216.169 79.0407C214.24 81.1104 212.463 82.778 210.833 84.0329C209.209 85.2931 207.945 85.9178 207.062 85.9178C206.244 85.9178 205.704 85.5701 205.448 84.864C205.192 84.1632 205.061 83.5168 205.061 82.9247C205.061 80.9257 205.797 78.4703 207.28 75.5478C208.762 72.6254 210.615 69.8332 212.834 67.1715C215.057 64.5097 217.483 62.2391 220.11 60.3541C222.743 58.4692 225.201 57.524 227.495 57.524C229.245 57.524 229.588 58.2682 229.719 58.8006C229.85 59.3275 229.85 61.4895 228.231 64.0045C226.618 66.5196 230.657 64.2924 231.169 64.2924C231.763 64.2924 229.877 70.1863 231.829 66.1774C233.785 62.163 235.404 57.524 232.052 54.2321C230.755 53.124 229.349 53.0859 227.719 53.0859C225.871 53.0859 223.904 53.5857 221.832 54.5852C219.761 55.5793 217.706 56.8939 215.668 58.5235C213.629 60.1477 211.689 62.0164 209.836 64.1241C207.983 66.2317 206.353 68.3937 204.947 70.61C203.541 72.8318 202.412 74.9938 201.562 77.1014C200.706 79.2091 200.281 81.1104 200.281 82.8106V84.2556C200.505 86.3252 201.246 87.9005 202.505 88.9707C203.764 90.0408 205.241 90.5786 206.947 90.5786Z" fill="#EFEDE5"/>
  <path d="M151.565 70.2619C152.407 63.6325 149.886 58.389 145.734 53.964C143.027 51.0776 139.942 48.5405 137.076 45.7905C132.498 41.3982 128.921 36.4057 130.452 29.2471C131.508 24.3037 134.303 20.0532 137.694 16.0374C142.19 10.7175 147.643 6.73444 153.594 3.42247C158.134 0.890759 162.947 -0.500593 168.023 0.285112C173.52 1.13084 176.479 6.99088 174.05 12.5399C171.397 18.5746 167.377 23.0214 161.569 25.946C160.431 26.5244 158.801 26.317 157.532 26.0442C157.188 25.9733 156.92 24.1345 157.319 23.4907C157.877 22.6068 159.031 21.8756 160.054 21.4609C163.456 20.1023 165.66 17.456 167.722 14.6679C168.433 13.7021 168.712 12.4362 169.412 11.465C170.96 9.31526 170.386 7.53105 168.821 6.24883C167.159 4.87384 165.053 4.38278 162.619 5.00479C158.254 6.11242 154.19 8.06031 150.487 10.652C147.594 12.6818 145.04 15.2735 142.442 17.707C139.844 20.146 138.022 23.0487 136.453 26.2352C134.762 29.6454 134.637 34.6815 136.753 37.5624C139.226 40.9017 142.294 43.6134 145.45 46.3034C147.638 48.164 149.454 50.4829 151.204 52.7854C152.604 54.6351 153.988 56.6158 154.775 58.8092C156.498 63.5943 157.532 68.4231 155.793 73.9995C153.911 80.0341 150.848 85.4413 146.828 90.2428C143.88 93.7621 140.615 97.2541 136.409 99.5731C134.385 100.692 132.569 102.318 130.491 103.272C124.534 106.022 118.283 107.501 112.808 104.265C108.995 102.007 106.458 98.2908 106.365 93.2929C106.255 87.3455 107.863 81.8129 111.577 76.7222C115.98 70.7039 121.329 65.7932 128.139 62.6449C129.654 61.952 130.802 62.6995 131.147 63.8726C131.36 64.631 130.808 66.2734 130.146 66.6553C125.344 69.4435 120.99 72.6463 117.408 77.0386C114.159 81.0217 111.621 85.1521 111.183 90.0846C110.724 95.2462 112.791 99.1202 117.473 100.997C120.203 102.088 123.151 100.997 126.055 99.9441C133.51 97.2432 139.231 92.1525 144.061 86.1233C147.818 81.4146 151.007 76.2802 151.565 70.2619Z" fill="#EFEDE5"/>
  <path d="M163.008 153.066C162.434 153.066 161.866 152.782 161.538 152.253C161.03 151.44 161.276 150.37 162.085 149.863C195.544 128.935 232.348 113.661 271.47 104.461C310.574 95.271 353.089 91.8931 397.844 94.4197C398.8 94.4743 399.538 95.2928 399.483 96.2532C399.429 97.2082 398.604 97.9394 397.647 97.8849C353.231 95.3747 311.044 98.7253 272.267 107.838C233.512 116.946 197.064 132.078 163.932 152.804C163.642 152.984 163.325 153.066 163.008 153.066Z" fill="#EFEDE5"/>
  <path fill-rule="evenodd" clip-rule="evenodd" d="M7.27991 92.9795C-8.86933 68.1952 1.84968 38.3122 39.4369 3.32748C45.4083 -3.05664 47.4224 1.0001 49.91 6.37003C59.3375 26.7061 80.6741 77.5356 19.3765 103.608C13.8571 100.418 9.8259 96.8729 7.27991 92.9795Z" fill="#EFEDE5"/>
  <path fill-rule="evenodd" clip-rule="evenodd" d="M9.00075 85.8911C12.5287 56.4671 39.9399 40.4619 91.2311 37.8726C99.9126 36.8264 98.8505 41.2366 97.3112 46.9615C91.4836 68.636 75.2074 121.383 11.4513 101.844C9.27166 95.8349 8.45277 90.5174 9.00075 85.8911Z" fill="white"/>
</svg>
