<svg height="49.998" viewBox="0 0 161.381 49.998" width="161.381" xmlns="http://www.w3.org/2000/svg" xmlns:xlink="http://www.w3.org/1999/xlink"><clipPath id="a"><path d="m0 0h161.381v49.998h-161.381z"/></clipPath><path d="m48.554 15.833h-5.085v16.183h-4.52v-16.183h-5.086v-4.563h14.691z" fill="#fff" transform="translate(16.42 5.465)"/><g clip-path="url(#a)"><g fill="#fff"><path d="m44.991 25.317v-14.047h4.52v13.63c0 1.57.707 2.9 3.109 2.9s3.106-1.335 3.106-2.9v-13.63h4.521v14.047c0 4.446-3.277 7.113-7.628 7.113s-7.629-2.667-7.629-7.113" transform="translate(21.816 5.464)"/><path d="m64.12 25.2h-2.147v6.816h-4.522v-20.746h7.912a6.992 6.992 0 0 1 3.137 13.13l4.21 7.617h-4.86zm-2.147-4.15h3.39a2.468 2.468 0 0 0 2.261-2.667 2.468 2.468 0 0 0 -2.261-2.667h-3.39z" transform="translate(27.858 5.464)"/><path d="m0 0h4.52v20.745h-4.52z" transform="translate(102.68 16.733)"/><path d="m88.217 15.833h-5.086v16.183h-4.52v-16.183h-5.086v-4.563h14.692z" transform="translate(35.652 5.464)"/><path d="m83.417 21.778a10.3 10.3 0 1 1 20.567 0 10.3 10.3 0 1 1 -20.567 0m16.049 0c0-3.7-2.544-6.164-5.766-6.164s-5.761 2.459-5.761 6.164 2.542 6.164 5.761 6.164 5.766-2.459 5.766-6.164" transform="translate(40.448 5.328)"/><path d="m113.387 18.383a6.962 6.962 0 0 1 -6.923 7.113h-2.964v6.52h-4.521v-20.746h7.485a6.961 6.961 0 0 1 6.923 7.113m-4.521 0a2.485 2.485 0 0 0 -2.4-2.667h-2.966v5.334h2.967a2.485 2.485 0 0 0 2.4-2.667" transform="translate(47.994 5.464)"/></g><path d="m11.224 16.667 16.666-16.667v16.667z" fill="#f9da10" transform="translate(5.442 -.001)"/><path d="m27.89 0-16.666 16.666v-16.666z" fill="#f1891e" transform="translate(5.442 -.001)"/><path d="m0 16.667 16.666-16.667v16.667z" fill="#e52d33" transform="translate(0 -.001)"/><path d="m39.114 0-16.667 16.666v-16.666z" fill="#9fc425" transform="translate(10.885 -.001)"/><path d="m11.224 27.89 16.666-16.666v16.666z" fill="#36b7bb" transform="translate(5.442 5.442)"/><path d="m27.89 11.224-16.666 16.667v-16.667z" fill="#30ab66" transform="translate(5.442 5.442)"/><path d="m27.89 22.448-16.666 16.666v-16.666z" fill="#2e68b0" transform="translate(5.442 10.884)"/></g></svg>