<svg width="2151" height="256" viewBox="0 0 2151 256" fill="none" xmlns="http://www.w3.org/2000/svg">
<g clip-path="url(#clip0_1132_1539)">
<path d="M400.721 106.797V180.102C400.721 200.201 408.705 219.476 422.917 233.688C437.129 247.901 456.404 255.885 476.503 255.885C496.601 255.885 515.877 247.901 530.089 233.688C544.3 219.476 552.284 200.201 552.284 180.102V107.005C552.284 106.867 552.284 106.74 552.284 106.601C552.284 106.463 552.284 106.325 552.284 106.198V105.806C552.071 101.944 550.387 98.3115 547.578 95.6534C544.769 92.9954 541.048 91.5142 537.181 91.5142C533.314 91.5142 529.594 92.9954 526.785 95.6534C523.976 98.3115 522.291 101.944 522.078 105.806V180.102C522.078 192.18 517.28 203.764 508.739 212.304C500.199 220.845 488.616 225.643 476.537 225.643C464.459 225.643 452.876 220.845 444.336 212.304C435.795 203.764 430.997 192.18 430.997 180.102V106.797C430.997 106.728 430.997 106.671 430.997 106.601C430.997 106.532 430.997 106.463 430.997 106.394V105.806C430.784 101.944 429.099 98.3115 426.29 95.6534C423.481 92.9954 419.761 91.5142 415.894 91.5142C412.027 91.5142 408.306 92.9954 405.497 95.6534C402.688 98.3115 401.004 101.944 400.79 105.806V106.394C400.79 106.463 400.79 106.532 400.79 106.601C400.79 106.671 400.721 106.728 400.721 106.797Z" fill="white"/>
<path d="M367.978 222.922H360.68C356.806 222.922 353.694 220.824 351.18 216.5C348.667 212.177 347.249 206.239 347.249 199.287V40.0187C347.249 35.8448 345.591 31.8419 342.639 28.8905C339.688 25.9391 335.685 24.281 331.511 24.281C327.338 24.281 323.335 25.9391 320.383 28.8905C317.432 31.8419 315.774 35.8448 315.774 40.0187V199.287C315.596 209.029 317.523 218.696 321.423 227.626C324.857 235.458 330.327 242.226 337.264 247.226C344.117 252.033 352.311 254.554 360.68 254.432H361.268C367.321 254.432 372.359 252.991 376.256 250.131C378.126 248.868 379.654 247.161 380.705 245.164C381.755 243.166 382.294 240.939 382.274 238.683C382.427 234.565 381.018 230.542 378.331 227.418C377.042 225.955 375.446 224.793 373.656 224.016C371.867 223.238 369.928 222.865 367.978 222.922Z" fill="white"/>
<path d="M1813.94 223.314H1806.65C1802.78 223.314 1799.67 221.204 1797.14 216.881C1794.62 212.557 1793.22 206.631 1793.22 199.667V40.3761C1793.22 38.3094 1792.81 36.2629 1792.02 34.3536C1791.23 32.4442 1790.07 30.7093 1788.61 29.2479C1787.15 27.7865 1785.42 26.6273 1783.51 25.8364C1781.6 25.0455 1779.55 24.6384 1777.48 24.6384C1775.42 24.6384 1773.37 25.0455 1771.46 25.8364C1769.55 26.6273 1767.82 27.7865 1766.36 29.2479C1764.89 30.7093 1763.73 32.4442 1762.94 34.3536C1762.15 36.2629 1761.75 38.3094 1761.75 40.3761V199.667C1761.56 209.409 1763.49 219.076 1767.38 228.006C1770.82 235.843 1776.29 242.612 1783.24 247.607C1790.09 252.419 1798.28 254.945 1806.65 254.824H1807.23C1813.29 254.824 1818.33 253.371 1822.22 250.512C1824.08 249.251 1825.61 247.549 1826.66 245.555C1827.71 243.562 1828.25 241.339 1828.24 239.086C1828.39 234.966 1826.98 230.939 1824.29 227.81C1823 226.347 1821.41 225.186 1819.62 224.409C1817.83 223.632 1815.89 223.258 1813.94 223.314Z" fill="white"/>
<path d="M707.964 102.036C696.942 95.2449 683.591 91.7976 668.28 91.7976C652.785 91.7976 638.846 95.3371 626.855 102.312C614.945 109.213 605.161 119.256 598.574 131.344C591.795 143.611 588.371 157.977 588.371 174.003C588.371 189.89 592.003 204.175 599.174 216.443C606.288 228.672 616.631 238.708 629.069 245.451C641.751 252.426 656.382 255.954 672.649 255.954C682.362 255.833 691.991 254.139 701.161 250.939C710.185 248.069 718.645 243.661 726.168 237.91C729.754 235.166 731.483 231.788 731.264 227.903C731.045 224.017 729.154 220.593 725.626 217.469C723.06 215.269 719.782 214.077 716.403 214.114H715.93C712.268 214.229 708.731 215.478 705.808 217.688C701.215 220.942 696.164 223.495 690.82 225.263C685.005 227.38 678.872 228.491 672.684 228.548C662.595 228.739 652.632 226.279 643.792 221.412C635.604 216.825 628.803 210.118 624.1 201.996C621.124 196.839 619.061 191.207 618.001 185.348H727.529C729.434 185.402 731.332 185.08 733.112 184.399C734.893 183.718 736.522 182.693 737.905 181.381C739.255 180.092 740.321 178.535 741.034 176.81C741.747 175.084 742.091 173.229 742.044 171.362C742.044 155.901 739.115 142.043 733.328 130.168C727.755 118.546 718.948 108.778 707.964 102.036ZM640.437 126.317C648.104 121.59 657.466 119.192 668.28 119.192C677.722 119.192 685.851 121.382 692.434 125.717C699.084 130.118 704.393 136.265 707.779 143.484C710.22 148.636 711.879 154.123 712.702 159.764H618.312C619.259 154.939 620.808 150.252 622.924 145.813C626.753 137.757 632.837 130.985 640.437 126.317Z" fill="white"/>
<path d="M1089.8 102.036C1078.78 95.2449 1065.42 91.7976 1050.1 91.7976C1034.61 91.7976 1020.68 95.3371 1008.69 102.312C996.777 109.212 986.99 119.255 980.399 131.344C973.631 143.611 970.196 157.977 970.196 174.003C970.196 189.89 973.827 204.175 980.999 216.443C988.118 228.672 998.464 238.708 1010.91 245.451C1023.59 252.426 1038.22 255.954 1054.49 255.954C1064.2 255.833 1073.83 254.139 1083 250.939C1092.02 248.069 1100.47 243.661 1107.99 237.91C1111.59 235.166 1113.31 231.788 1113.1 227.903C1112.89 224.017 1110.99 220.593 1107.46 217.469C1104.89 215.272 1101.62 214.08 1098.24 214.114H1097.78C1094.11 214.229 1090.57 215.477 1087.64 217.688C1083.05 220.945 1078 223.498 1072.66 225.263C1066.84 227.379 1060.71 228.491 1054.52 228.548C1044.43 228.739 1034.47 226.279 1025.63 221.412C1018.93 217.681 1013.14 212.511 1008.68 206.275C1004.22 200.039 1001.19 192.892 999.826 185.348H1109.35C1111.26 185.405 1113.16 185.083 1114.94 184.403C1116.72 183.722 1118.35 182.695 1119.73 181.381C1121.08 180.094 1122.15 178.538 1122.87 176.812C1123.58 175.086 1123.93 173.23 1123.88 171.362C1123.88 155.901 1120.94 142.043 1115.15 130.168C1109.58 118.547 1100.78 108.779 1089.8 102.036ZM1022.27 126.317C1029.93 121.59 1039.29 119.192 1050.1 119.192C1059.55 119.192 1067.68 121.382 1074.32 125.717C1080.97 130.118 1086.28 136.265 1089.66 143.484C1092.09 148.638 1093.75 154.124 1094.57 159.764H1000.19C1001.15 154.94 1002.7 150.254 1004.81 145.813C1008.62 137.764 1014.69 130.992 1022.27 126.317Z" fill="white"/>
<path d="M1957.51 102.036C1946.48 95.2449 1933.13 91.7976 1917.82 91.7976C1902.32 91.7976 1888.39 95.3371 1876.4 102.312C1864.49 109.212 1854.7 119.255 1848.11 131.344C1841.34 143.611 1837.91 157.977 1837.91 174.003C1837.91 189.89 1841.54 204.175 1848.71 216.443C1855.83 228.672 1866.18 238.708 1878.62 245.451C1891.3 252.426 1905.93 255.954 1922.2 255.954C1931.91 255.833 1941.54 254.139 1950.71 250.939C1959.73 248.069 1968.19 243.661 1975.71 237.91C1979.3 235.166 1981.02 231.788 1980.81 227.903C1980.61 224.017 1978.7 220.593 1975.17 217.469C1972.61 215.272 1969.33 214.08 1965.95 214.114H1965.49C1961.82 214.229 1958.28 215.477 1955.36 217.688C1950.77 220.945 1945.71 223.498 1940.37 225.263C1934.55 227.379 1928.42 228.491 1922.23 228.548C1912.14 228.739 1902.18 226.279 1893.34 221.412C1886.64 217.681 1880.85 212.511 1876.39 206.275C1871.93 200.039 1868.91 192.892 1867.54 185.348H1977.07C1978.97 185.405 1980.87 185.083 1982.65 184.403C1984.43 183.722 1986.06 182.695 1987.44 181.381C1988.8 180.094 1989.86 178.538 1990.58 176.812C1991.29 175.086 1991.64 173.23 1991.59 171.362C1991.59 155.901 1988.65 142.043 1982.86 130.168C1977.29 118.549 1968.49 108.782 1957.51 102.036ZM1889.99 126.317C1897.64 121.59 1907 119.192 1917.82 119.192C1927.26 119.192 1935.39 121.382 1942.03 125.717C1948.68 130.115 1953.99 136.263 1957.37 143.484C1959.81 148.638 1961.46 154.124 1962.29 159.764H1867.91C1868.86 154.94 1870.41 150.254 1872.52 145.813C1876.34 137.764 1882.4 130.992 1889.99 126.317Z" fill="white"/>
<path d="M1338.75 92.7315C1330.83 92.7315 1325.35 97.5278 1322.48 106.97L1291.71 203.46L1266.35 104.688C1265.61 101.323 1263.79 98.2957 1261.16 96.0751C1258.26 93.772 1254.64 92.5854 1250.94 92.7315C1246.59 92.7315 1243.09 93.8845 1240.57 96.0866C1238.01 98.3705 1236.17 101.346 1235.26 104.653L1206.52 201.789L1176.21 107.005C1174.59 101.955 1172.45 98.2887 1169.87 96.1212C1167.07 93.849 1163.55 92.662 1159.94 92.7777C1153.82 92.7777 1149.79 94.9336 1147.94 99.165C1146.19 103.189 1146.12 108.389 1147.75 114.649V114.718L1190.91 244.229C1192 247.252 1194.02 249.854 1196.68 251.665C1199.36 253.602 1202.59 254.646 1205.9 254.651C1209.32 254.687 1212.67 253.642 1215.47 251.665C1218.13 249.893 1220.09 247.247 1221.01 244.182L1249.84 142.32L1277.37 244.171C1278.32 247.285 1280.37 249.95 1283.13 251.677C1285.89 253.602 1289.17 254.64 1292.53 254.651C1295.92 254.7 1299.22 253.648 1301.96 251.654C1304.55 249.848 1306.46 247.213 1307.36 244.182L1350.51 114.718C1352.74 108.435 1352.82 103.189 1350.73 99.0958C1348.64 95.0028 1344.63 92.7315 1338.75 92.7315Z" fill="white"/>
<path d="M1492.92 102.093C1480.34 94.8156 1466.03 91.0784 1451.51 91.2786C1436.93 91.089 1422.58 94.8203 1409.94 102.082C1397.78 109.165 1387.7 119.32 1380.71 131.528C1373.43 144.316 1369.7 158.817 1369.9 173.53C1369.9 189.014 1373.23 203.091 1379.81 215.347C1386.11 227.325 1395.45 237.433 1406.9 244.655C1418.61 251.737 1432.04 255.481 1445.72 255.481C1459.41 255.481 1472.84 251.737 1484.55 244.655C1490.62 240.84 1496.11 236.182 1500.86 230.82V238.556C1500.81 240.697 1501.18 242.829 1501.96 244.824C1502.74 246.819 1503.91 248.638 1505.4 250.173C1506.9 251.708 1508.68 252.928 1510.66 253.761C1512.63 254.594 1514.75 255.023 1516.89 255.023C1519.04 255.023 1521.16 254.594 1523.13 253.761C1525.1 252.928 1526.89 251.708 1528.38 250.173C1529.88 248.638 1531.05 246.819 1531.83 244.824C1532.61 242.829 1532.98 240.697 1532.93 238.556V173.53C1533.13 158.817 1529.4 144.316 1522.12 131.528C1515.12 119.336 1505.06 109.188 1492.92 102.093ZM1451.51 226.923C1442.42 227.03 1433.49 224.611 1425.7 219.936C1418.03 215.298 1411.73 208.705 1407.44 200.831C1403.03 192.355 1400.73 182.94 1400.73 173.386C1400.73 163.831 1403.03 154.417 1407.44 145.94C1411.72 138.073 1418.01 131.484 1425.67 126.847C1433.52 122.275 1442.45 119.866 1451.54 119.866C1460.63 119.866 1469.56 122.275 1477.41 126.847C1484.99 131.508 1491.19 138.107 1495.37 145.963C1499.84 154.468 1502.1 163.959 1501.95 173.564C1502.08 183.072 1499.82 192.461 1495.37 200.866C1491.2 208.724 1485 215.324 1477.41 219.982C1469.59 224.662 1460.62 227.066 1451.51 226.923Z" fill="white"/>
<path d="M1690.45 102.335C1679.84 95.9146 1667.79 92.2289 1655.4 91.6091C1643.01 90.9893 1630.67 93.4548 1619.46 98.7844C1610.78 103.042 1602.98 108.911 1596.49 116.079V40.4569C1596.43 37.2994 1595.45 34.2266 1593.68 31.611C1591.92 28.9953 1589.42 26.949 1586.52 25.7202C1583.61 24.4914 1580.4 24.1327 1577.29 24.6876C1574.19 25.2426 1571.3 26.6873 1569 28.8468C1567.47 30.3586 1566.27 32.1723 1565.47 34.173C1564.68 36.1736 1564.31 38.3175 1564.39 40.4684V173.472C1564.38 188.176 1568.14 202.635 1575.33 215.462C1582.25 227.667 1592.26 237.826 1604.37 244.909C1616.95 252.186 1631.26 255.919 1645.78 255.712C1661.29 255.712 1675.32 252.08 1687.5 244.909C1699.61 237.802 1709.66 227.651 1716.64 215.462C1723.92 202.679 1727.65 188.182 1727.45 173.472C1727.45 157.988 1724.11 143.922 1717.54 131.643C1711.23 119.672 1701.89 109.567 1690.45 102.335ZM1671.74 220.236C1665.94 223.767 1659.48 226.074 1652.76 227.015C1646.04 227.956 1639.19 227.511 1632.65 225.707C1626.1 223.904 1620 220.779 1614.71 216.527C1609.42 212.275 1605.05 206.984 1601.88 200.981C1597.44 192.519 1595.19 183.084 1595.31 173.53C1595.14 163.971 1597.4 154.525 1601.88 146.078C1606.12 138.251 1612.37 131.702 1619.99 127.112C1627.85 122.544 1636.78 120.137 1645.87 120.137C1654.95 120.137 1663.88 122.544 1671.74 127.112C1679.32 131.762 1685.56 138.302 1689.85 146.09C1694.42 154.505 1696.73 163.958 1696.56 173.53C1696.68 183.1 1694.37 192.545 1689.85 200.981C1685.62 208.884 1679.37 215.527 1671.74 220.236Z" fill="white"/>
<path d="M2145.09 185.832C2141.3 179.756 2135.02 174.372 2126.42 169.817C2117.81 165.263 2106.16 161.551 2091.54 158.622C2081.16 156.512 2073.18 154.322 2067.84 152.12C2062.49 149.918 2059.13 147.589 2057.46 144.971C2055.74 142.346 2054.84 139.267 2054.88 136.128C2054.88 130.917 2057.57 127.055 2063.13 124.322C2068.9 121.497 2076.01 120.068 2084.35 120.068C2090.84 119.965 2097.31 120.832 2103.55 122.639C2109.31 124.524 2114.54 127.73 2118.84 132.001C2122.02 134.916 2125.98 136.846 2130.23 137.558C2131.37 137.768 2132.53 137.876 2133.69 137.881C2136.7 137.923 2139.65 137.028 2142.13 135.321C2143.7 134.257 2145.01 132.85 2145.95 131.206C2146.89 129.562 2147.45 127.724 2147.58 125.833C2147.64 123.885 2147.31 121.945 2146.61 120.126C2145.91 118.307 2144.86 116.645 2143.51 115.237C2137.6 107.962 2129.5 102.151 2119.45 98.0119C2109.4 93.8729 2097.81 91.7976 2084.86 91.7976C2075 91.776 2065.2 93.429 2055.89 96.6861C2047.1 99.6205 2039.21 104.747 2032.96 111.582C2026.95 118.292 2023.92 126.836 2023.92 136.947C2023.92 148.476 2028.53 158.426 2037.58 166.393C2046.63 174.36 2061.09 180.229 2080.85 184.16C2095.84 186.846 2106.22 190.305 2111.74 194.456C2117.26 198.606 2119.81 203.184 2119.59 208.66C2119.37 214.137 2116.58 218.506 2110.94 222.011C2105.31 225.516 2096.75 227.384 2085.74 227.384C2077.54 227.49 2069.4 225.884 2061.85 222.668C2054.74 219.544 2049.52 216.154 2046.34 212.603C2043.62 209.582 2039.9 207.635 2035.86 207.115C2035.31 207.046 2034.74 207.012 2034.18 207.011C2030.63 207.011 2027.03 208.453 2023.47 211.3C2021.78 212.54 2020.36 214.116 2019.31 215.93C2018.26 217.743 2017.6 219.755 2017.36 221.838C2017.1 223.934 2017.31 226.063 2018 228.062C2018.68 230.061 2019.82 231.876 2021.31 233.368C2027.84 239.905 2037.06 245.335 2048.74 249.509C2061 253.824 2073.91 255.969 2086.9 255.85C2100.82 255.85 2112.61 253.66 2121.95 249.324C2131.29 244.989 2138.57 239.052 2143.43 231.708C2148.3 224.344 2150.86 215.691 2150.78 206.862C2150.89 199.457 2148.92 192.169 2145.09 185.832Z" fill="white"/>
<path d="M929.544 239.997V166.693C929.544 146.594 921.56 127.318 907.348 113.106C893.136 98.8939 873.861 90.9097 853.762 90.9097C833.664 90.9097 814.388 98.8939 800.176 113.106C785.965 127.318 777.98 146.594 777.98 166.693V239.836C777.98 239.974 777.98 240.101 777.98 240.239C777.98 240.378 777.98 240.516 777.98 240.643V240.989C778.194 244.85 779.878 248.483 782.687 251.141C785.496 253.799 789.217 255.28 793.084 255.28C796.951 255.28 800.671 253.799 803.48 251.141C806.289 248.483 807.974 244.85 808.187 240.989V166.693C808.187 154.614 812.985 143.031 821.526 134.49C830.066 125.95 841.649 121.151 853.727 121.151C865.806 121.151 877.389 125.95 885.929 134.49C894.47 143.031 899.268 154.614 899.268 166.693V239.997C899.268 240.055 899.268 240.124 899.268 240.193C899.268 240.262 899.268 240.331 899.268 240.401V240.989C899.454 244.871 901.127 248.533 903.94 251.214C906.753 253.896 910.49 255.392 914.377 255.392C918.264 255.392 922.001 253.896 924.814 251.214C927.627 248.533 929.3 244.871 929.486 240.989V240.401C929.486 240.331 929.486 240.262 929.486 240.193C929.486 240.124 929.544 240.055 929.544 239.997Z" fill="white"/>
<path d="M244.385 127.204C255.901 117.941 264.262 105.336 268.318 91.1243C272.375 76.9125 271.926 61.7929 267.035 47.8466C262.143 33.9003 253.049 21.813 241.005 13.2485C228.96 4.68408 214.557 0.0635396 199.778 0.0229492H121.38C117.272 0.13404 113.37 1.84388 110.504 4.78856C107.638 7.73324 106.034 11.6802 106.034 15.7895C106.034 19.8987 107.638 23.8457 110.504 26.7904C113.37 29.7351 117.272 31.4449 121.38 31.556H199.778C210.283 31.5799 220.355 35.7402 227.815 43.1363C235.274 50.5324 239.52 60.569 239.634 71.0731C239.748 81.5771 235.72 91.7033 228.422 99.2591C221.125 106.815 211.145 111.192 200.643 111.444H68.5989C66.4926 111.387 64.3962 111.752 62.4336 112.519C60.4709 113.286 58.6818 114.438 57.1719 115.908C55.6619 117.377 54.4618 119.135 53.6423 121.076C52.8228 123.017 52.4006 125.103 52.4006 127.21C52.4006 129.317 52.8228 131.403 53.6423 133.344C54.4618 135.286 55.6619 137.043 57.1719 138.513C58.6818 139.982 60.4709 141.135 62.4336 141.901C64.3962 142.668 66.4926 143.034 68.5989 142.977H199.778C210.257 143.155 220.247 147.443 227.595 154.916C234.943 162.39 239.06 172.451 239.06 182.932C239.06 193.413 234.943 203.474 227.595 210.948C220.247 218.421 210.257 222.709 199.778 222.887H15.7605C11.6529 222.998 7.75075 224.708 4.88469 227.653C2.01862 230.598 0.414917 234.545 0.414917 238.654C0.414917 242.763 2.01862 246.71 4.88469 249.655C7.75075 252.599 11.6529 254.309 15.7605 254.42H199.778C214.566 254.389 228.979 249.772 241.033 241.205C253.086 232.639 262.187 220.545 267.08 206.591C271.973 192.636 272.417 177.508 268.353 163.29C264.288 149.072 255.914 136.464 244.385 127.204Z" fill="white"/>
</g>
<defs>
<clipPath id="clip0_1132_1539">
<rect width="2150.79" height="256" fill="white"/>
</clipPath>
</defs>
</svg>
