<svg version="1.2" xmlns="http://www.w3.org/2000/svg" viewBox="0 0 958 848" width="512" height="453">
	<style>
		.s0 { fill: #fefefe } 
		.s1 { fill: #ffffff } 
	</style>
	<g id="Capa 1">
		<g id="SAPPO">
			<g id="&lt;Group&gt;">
				<g id="&lt;Group&gt;">
					<g id="&lt;Group&gt;">
					</g>
				</g>
			</g>
			<g id="&lt;Group&gt;">
				<g id="&lt;Group&gt;">
					<g id="&lt;Group&gt;">
					</g>
				</g>
			</g>
		</g>
		<path id="pata izquierda" class="s0" d="m433.65 494.31c-6.74-30.67-28.42-49.7-56.56-49.7-3.21 0-6.53 0.25-9.84 0.75-30.4 4.59-51.43 31.05-53.54 67.39-1.04 17.69 5.92 50.23 21.68 65.37 0.71 0.68 0.94 1.74 0.57 2.66-0.38 0.93-1.27 1.53-2.26 1.53h-13.2c-0.36 0-0.65 0.29-0.65 0.65 0 0.39 0.29 0.68 0.65 0.68h99.06c0.36 0 0.65-0.29 0.65-0.65 0-0.26-0.12-0.42-0.23-0.5-0.84-0.78-1.04-2.03-0.47-3.04 10.41-17.93 19.13-62.44 14.14-85.14z"/>
		<path id="pata derecha" class="s0" d="m636.46 582.31h-13.35c-1.01 0-1.9-0.6-2.28-1.53-0.35-0.92-0.13-1.98 0.59-2.68 16.25-15.43 23.89-48.47 23.14-66.4-1.54-36.87-22.1-63.03-52.41-66.63-2.56-0.31-5.14-0.46-7.66-0.46-28.86 0-52.26 20.69-59.63 52.72-5.23 22.78 2.19 63.92 11.93 81.6 0.33 0.62 0.39 1.33 0.16 1.98-0.24 0.67-0.73 1.19-1.38 1.45-0.17 0.08-0.39 0.27-0.39 0.6 0 0.39 0.3 0.68 0.65 0.68h100.63c0.35 0 0.65-0.29 0.65-0.65 0-0.39-0.3-0.68-0.65-0.68z"/>
		<path id="fondo ojo izquierdo" fill-rule="evenodd" class="s0" d="m439.84 336.96c-7.24 9.48-17.75 15.57-29.57 17.13q-2.96 0.4-5.95 0.41c-22.26 0-41.26-16.68-44.2-38.78-3.25-24.41 13.97-46.9 38.37-50.15q2.98-0.41 5.96-0.41c22.27 0 41.25 16.68 44.19 38.78 1.58 11.83-1.54 23.55-8.8 33.02zm-27.28-27.14c0-4.52-3.66-8.18-8.18-8.18-4.52 0-8.17 3.66-8.17 8.18 0 4.53 3.65 8.19 8.17 8.19 4.52 0 8.18-3.66 8.18-8.19z"/>
		<path id="fondo ojo derecho" fill-rule="evenodd" class="s0" d="m579.67 336.96c-7.25 9.48-17.75 15.57-29.58 17.13q-2.96 0.4-5.94 0.41c-22.27 0-41.27-16.68-44.21-38.78-3.24-24.41 13.97-46.92 38.38-50.15q2.98-0.41 5.96-0.41c22.26 0 41.25 16.68 44.19 38.78 1.57 11.83-1.55 23.55-8.8 33.02zm-27.29-27.14c0-4.52-3.65-8.18-8.17-8.18-4.53 0-8.18 3.66-8.18 8.18 0 4.53 3.65 8.19 8.18 8.19 4.52 0 8.17-3.66 8.17-8.19z"/>
		<g id="&lt;Group&gt;">
		</g>
		<g id="&lt;Group&gt;">
			<path id="&lt;Compound Path&gt;" fill-rule="evenodd" class="s1" d="m609.33 444.6c-5.14-2.17-10.67-3.67-16.55-4.37-2.76-0.33-5.54-0.49-8.25-0.49-31.21 0-56.48 22.17-64.38 56.48-4.46 19.49-0.07 51.76 7.24 72.93-12.24 5.13-24.91 8.76-35.88 10.22-21.86 2.91-43.17 0.64-63.41-6.62 8.7-21.83 14.84-59.09 10.35-79.5-7.26-33.02-30.76-53.51-61.32-53.51-3.46 0-7.02 0.26-10.56 0.8-9.78 1.48-18.63 5.07-26.34 10.36 3.75-36.62 21.09-73.5 45.06-95.44 5.9 2.5 12.34 3.91 19.07 3.91q3.3 0 6.6-0.44c13.1-1.75 24.76-8.49 32.8-19 8.04-10.51 11.5-23.51 9.76-36.64-0.97-7.26-3.58-13.79-7.36-19.47 9.27 2.08 23.9 2.76 33.91 2.76q2.38 0 4.36-0.05c7.93-0.18 13.3-0.75 16.99-1.44-5.29 9.14-7.77 20.01-6.28 31.28 3.27 24.5 24.35 43 49.05 43q3.3 0 6.59-0.44c4.5-0.6 8.81-1.83 12.87-3.56 24.24 22.61 41.07 53.98 45.09 84.26q0.34 2.58 0.59 4.97zm-133.92-79.3c0-1.79-1.93-3.25-4.32-3.25-2.39 0-4.32 1.46-4.32 3.25 0 1.8 1.93 3.25 4.32 3.25 2.39 0 4.32-1.45 4.32-3.25zm14.16 0c0-1.79-1.93-3.25-4.32-3.25-2.39 0-4.32 1.46-4.32 3.25 0 1.8 1.93 3.25 4.32 3.25 2.39 0 4.32-1.45 4.32-3.25z"/>
		</g>
		<g id="Logo NFC">
			<g id="&lt;Group&gt;">
			</g>
		</g>
	</g>
</svg>